HIERARCHY
ROOT reference
{
  OFFSET -14.9618 0 -88.1468
  CHANNELS 6 Xposition Yposition Zposition Zrotation Xrotation Yrotation
  JOINT root
  {
    OFFSET -1.34051 87.6824 0.92295
    CHANNELS 6 Xposition Yposition Zposition Zrotation Xrotation Yrotation
    JOINT Hips
    {
      OFFSET 0 0 0
      CHANNELS 6 Xposition Yposition Zposition Zrotation Xrotation Yrotation
      JOINT Spine
      {
        OFFSET -0.022439 -0.1054 -0.012426
        CHANNELS 6 Xposition Yposition Zposition Zrotation Xrotation Yrotation
        JOINT Spine1
        {
          OFFSET 5.77671 16.9612 4.84239
          CHANNELS 6 Xposition Yposition Zposition Zrotation Xrotation Yrotation
          JOINT Spine2
          {
            OFFSET 6.19521 16.1153 6.81891
            CHANNELS 6 Xposition Yposition Zposition Zrotation Xrotation Yrotation
            JOINT Neck
            {
              OFFSET 8.89408 13.5778 9.00239
              CHANNELS 6 Xposition Yposition Zposition Zrotation Xrotation Yrotation
              JOINT Head
              {
                OFFSET 5.68768 7.20032 6.98544
                CHANNELS 6 Xposition Yposition Zposition Zrotation Xrotation Yrotation
                End Site
                {
                  OFFSET 0 0 0
                }
              }
            }
            JOINT RightShoulder
            {
              OFFSET 7.14066 12.6907 12.0691
              CHANNELS 6 Xposition Yposition Zposition Zrotation Xrotation Yrotation
              JOINT RightArm
              {
                OFFSET -6.46837 -6.45928 13.2304
                CHANNELS 6 Xposition Yposition Zposition Zrotation Xrotation Yrotation
                JOINT RightForearm
                {
                  OFFSET 3.23048 -13.451 25.948
                  CHANNELS 6 Xposition Yposition Zposition Zrotation Xrotation Yrotation
                  JOINT RightHand
                  {
                    OFFSET 14.4625 -2.09482 20.1953
                    CHANNELS 6 Xposition Yposition Zposition Zrotation Xrotation Yrotation
                    End Site
                    {
                      OFFSET 0 0 0
                    }
                  }
                }
              }
            }
            JOINT LeftShoulder
            {
              OFFSET 10.6568 14.4508 5.94266
              CHANNELS 6 Xposition Yposition Zposition Zrotation Xrotation Yrotation
              JOINT LeftArm
              {
                OFFSET 6.97329 3.71591 -14.0061
                CHANNELS 6 Xposition Yposition Zposition Zrotation Xrotation Yrotation
                JOINT LeftForearm
                {
                  OFFSET -7.16178 -11.9495 -25.8956
                  CHANNELS 6 Xposition Yposition Zposition Zrotation Xrotation Yrotation
                  JOINT LeftHand
                  {
                    OFFSET 12.9044 -19.5933 8.42483
                    CHANNELS 6 Xposition Yposition Zposition Zrotation Xrotation Yrotation
                    End Site
                    {
                      OFFSET 0 0 0
                    }
                  }
                }
              }
            }
          }
        }
      }
      JOINT RightUpLeg
      {
        OFFSET -4.5422 -0.222001 8.40704
        CHANNELS 6 Xposition Yposition Zposition Zrotation Xrotation Yrotation
        JOINT RightLeg
        {
          OFFSET 10.0342 -37.9966 21.9721
          CHANNELS 6 Xposition Yposition Zposition Zrotation Xrotation Yrotation
          JOINT RightFoot
          {
            OFFSET -2.89176 -41.001 -2.47504
            CHANNELS 6 Xposition Yposition Zposition Zrotation Xrotation Yrotation
            JOINT RightToe
            {
              OFFSET 4.98398 -7.3463 15.663
              CHANNELS 6 Xposition Yposition Zposition Zrotation Xrotation Yrotation
              End Site
              {
                OFFSET 0 0 0
              }
            }
          }
        }
      }
      JOINT LeftUpLeg
      {
        OFFSET 4.5422 0.222008 -8.40702
        CHANNELS 6 Xposition Yposition Zposition Zrotation Xrotation Yrotation
        JOINT LeftLeg
        {
          OFFSET 10.1292 -41.6279 -13.8462
          CHANNELS 6 Xposition Yposition Zposition Zrotation Xrotation Yrotation
          JOINT LeftFoot
          {
            OFFSET -9.91069 -37.454 -13.9481
            CHANNELS 6 Xposition Yposition Zposition Zrotation Xrotation Yrotation
            JOINT LeftToe
            {
              OFFSET 16.055 -8.14678 0.070286
              CHANNELS 6 Xposition Yposition Zposition Zrotation Xrotation Yrotation
              End Site
              {
                OFFSET 0 0 0
              }
            }
          }
        }
      }
    }
  }
}
MOTION
Frames:	9
Frame Time:	0.0333333
0 0 0 0 0 -0 -1e-06 87.9518 -2e-06 1e-06 1e-06 1e-06 1e-06 0 1e-06 -4e-06 -6e-06 1e-06 -0.022439 -0.1054 -0.012426 -3e-06 -1e-06 -3e-06 5.77671 16.9612 4.84239 -2e-06 2e-06 -5e-06 6.19521 16.1153 6.81891 -0.0119068 -1e-06 2e-06 8.89408 13.5778 9.00239 -2e-06 5e-06 2e-06 5.68768 7.20032 6.98544 6.12563e-20 -8e-06 -3.79152e-22 7.14066 12.6907 12.0691 -6e-06 1e-06 -2e-06 -6.46837 -6.45928 13.2304 -5e-06 -3e-06 2e-06 3.23048 -13.451 25.948 -1e-06 5e-06 -4e-06 14.4625 -2.09482 20.1953 -2e-06 -6.98132e-14 2e-06 10.6568 14.4508 5.94266 1e-05 -9e-06 -7e-06 6.97329 3.71591 -14.0061 -1e-06 -4e-06 2e-06 -7.16178 -11.9495 -25.8956 3e-06 -5e-06 -6e-06 12.9044 -19.5933 8.42483 -6e-06 -9.99999e-07 -6e-06 -4.5422 -0.222001 8.40704 -8e-06 6e-06 1e-06 10.0342 -37.9966 21.9721 1e-06 -2e-06 5e-06 -2.89176 -41.001 -2.47504 -2e-06 3.49066e-14 -1e-06 4.98398 -7.3463 15.663 -1e-06 1e-06 5e-06 4.5422 0.222008 -8.40702 -1.1e-05 4e-06 -3e-06 10.1292 -41.6279 -13.8462 1e-06 0 -0 -9.91069 -37.454 -13.9481 -1e-06 -3e-06 1e-06 16.055 -8.14678 0.070286 4.13354e-21 1e-06 -1.80794e-28 
-0.078695 0 -1.7032 0 0 -0 0.041792 87.9847 -0.605345 0.116548 0.102805 0.066175 1e-06 0 1e-06 -0.0826733 -0.155662 0.0507184 -0.022439 -0.1054 -0.012426 -0.046574 -0.0633042 0.0457216 5.77671 16.9612 4.84239 -0.0320759 -0.056904 0.148235 6.19521 16.1153 6.81891 -0.0118534 -0.02882 0.106194 8.89408 13.5778 9.00239 -0.0635648 0.0483685 -0.152743 5.68768 7.20032 6.98544 -0.0257627 0.0986577 -0.301768 7.14066 12.6907 12.0691 0.1136 0.342288 -0.0738528 -6.46837 -6.45928 13.2304 -0.045325 -0.0920704 -0.387628 3.23048 -13.451 25.948 0.050339 -0.058156 0.0830631 14.4625 -2.09482 20.1953 -0.05829 -0.045097 -0.0128129 10.6568 14.4508 5.94266 0.00885899 0.100101 -0.144585 6.97329 3.71591 -14.0061 0.058033 -0.0264455 -0.0459292 -7.16178 -11.9495 -25.8956 -0.0521881 0.107657 0.0485321 12.9044 -19.5933 8.42483 -0.017405 -0.0393079 -0.0233629 -4.5422 -0.222001 8.40704 -0.572941 -0.387628 -0.666847 10.0342 -37.9966 21.9721 1.44426 -2.74784 0.141614 -2.89176 -41.001 -2.47504 -0.216983 3.86198 0.204393 4.98398 -7.3463 15.663 -1e-06 1e-06 5e-06 4.5422 0.222008 -8.40702 1.8093 -1.80564 -1.46908 10.1292 -41.6279 -13.8462 -4.31854 0.280503 1.52862 -9.91069 -37.454 -13.9481 2.479 3.41654 -0.579207 16.055 -8.14678 0.070286 -0.738112 -1.88567 0.0306945 
-0.068828 0 -3.21414 0 0 -0 0.241701 87.9093 -1.31176 0.419201 0.129569 -0.114608 1e-06 1.42109e-14 1e-06 -0.126419 -0.238158 0.0773927 -0.022439 -0.1054 -0.012426 -0.096222 -0.138728 0.142919 5.77671 16.9612 4.84239 -0.066912 -0.134092 0.339879 6.19521 16.1153 6.81891 -0.0116159 -0.0685583 0.243119 8.89408 13.5778 9.00239 -0.215518 0.114739 -0.207272 5.68768 7.20032 6.98544 -0.215722 0.306281 -0.455614 7.14066 12.6907 12.0691 0.166626 0.585983 -0.198829 -6.46837 -6.45928 13.2304 -0.171891 -0.117943 -0.470418 3.23048 -13.451 25.948 -0.001105 0.00127804 -0.00182998 14.4625 -2.09482 20.1953 -0.038452 -0.0388241 -0.0639491 10.6568 14.4508 5.94266 0.0408979 0.239816 -0.284779 6.97329 3.71591 -14.0061 -0.10862 -0.0350605 0.0265966 -7.16178 -11.9495 -25.8956 -0.0964355 0.198721 0.0896896 12.9044 -19.5933 8.42483 -0.038662 -0.0920633 -0.0381831 -4.5422 -0.222001 8.40704 -1.55757 -0.515064 -1.29608 10.0342 -37.9966 21.9721 3.17172 -5.99845 0.400199 -2.89176 -41.001 -2.47504 0.198051 7.98191 0.437066 4.98398 -7.3463 15.663 -1e-06 1e-06 5e-06 4.5422 0.222008 -8.40702 3.04129 -3.67869 -2.29703 10.1292 -41.6279 -13.8462 -8.10959 0.431048 2.88287 -9.91069 -37.454 -13.9481 4.83733 6.64762 -1.01821 16.055 -8.14678 0.070286 -1.16173 -3.54697 0.035555 
-0.249641 0 -4.7659 0 0 -0 0.604139 87.6966 -2.12775 0.89962 0.0721653 -0.544074 1e-06 0 1e-06 -0.13965 -0.26313 0.0854549 -0.022439 -0.1054 -0.012426 -0.139575 -0.221438 0.267784 5.77671 16.9612 4.84239 -0.0943344 -0.225491 0.546857 6.19521 16.1153 6.81891 -0.00974179 -0.116783 0.390599 8.89408 13.5778 9.00239 -0.434106 0.209478 -0.149807 5.68768 7.20032 6.98544 -0.530294 0.627388 -0.42847 7.14066 12.6907 12.0691 0.143105 0.685277 -0.369149 -6.46837 -6.45928 13.2304 -0.34461 -0.0287397 -0.189018 3.23048 -13.451 25.948 -0.137154 0.159351 -0.226803 14.4625 -2.09482 20.1953 0.0473968 0.0106597 -0.147825 10.6568 14.4508 5.94266 0.110982 0.436198 -0.401612 6.97329 3.71591 -14.0061 -0.538575 0.00457496 0.199392 -7.16178 -11.9495 -25.8956 -0.113397 0.233602 0.10547 12.9044 -19.5933 8.42483 -0.0650112 -0.159879 -0.0369954 -4.5422 -0.222001 8.40704 -2.90358 -0.381767 -1.82308 10.0342 -37.9966 21.9721 5.14002 -9.62747 0.809934 -2.89176 -41.001 -2.47504 1.23225 11.7073 0.638742 4.98398 -7.3463 15.663 -1e-06 1e-06 5e-06 4.5422 0.222008 -8.40702 3.77902 -5.46012 -2.27238 10.1292 -41.6279 -13.8462 -11.2035 0.487289 3.99281 -9.91069 -37.454 -13.9481 7.1381 9.17583 -1.5578 16.055 -8.14678 0.070286 -1.43868 -4.51742 0.0499686 
-0.364988 0 -7.98434 0 0 -0 1.39854 87.0174 -4.15602 1.97777 0.00824312 -1.54686 1e-06 1.42109e-14 1e-06 -0.160311 -0.30213 0.097759 -0.022439 -0.1054 -0.012426 -0.246942 -0.398061 0.393126 5.77671 16.9612 4.84239 -0.202763 -0.442936 0.791744 6.19521 16.1153 6.81891 -0.0577356 -0.247833 0.579622 8.89408 13.5778 9.00239 -0.637999 0.43959 0.036634 5.68768 7.20032 6.98544 -0.766086 1.18687 -0.164586 7.14066 12.6907 12.0691 0.0556879 0.724181 -0.64369 -6.46837 -6.45928 13.2304 -0.463793 0.269128 0.550821 3.23048 -13.451 25.948 -0.134295 0.156026 -0.222079 14.4625 -2.09482 20.1953 -0.0167799 -0.0317054 -0.217283 10.6568 14.4508 5.94266 0.329965 0.973461 -0.634462 6.97329 3.71591 -14.0061 -1.54314 0.0784881 0.299236 -7.16178 -11.9495 -25.8956 -0.0591741 0.122017 0.055013 12.9044 -19.5933 8.42483 -0.150142 -0.273625 -0.0262511 -4.5422 -0.222001 8.40704 -5.84303 0.101573 -2.07364 10.0342 -37.9966 21.9721 9.27202 -16.8677 2.04493 -2.89176 -41.001 -2.47504 3.71107 12.5932 1.29955 4.98398 -7.3463 15.663 -1e-06 1e-06 5e-06 4.5422 0.222008 -8.40702 4.64397 -9.12824 -2.0541 10.1292 -41.6279 -13.8462 -16.4983 0.444356 5.89368 -9.91069 -37.454 -13.9481 11.4581 12.0968 -2.24696 16.055 -8.14678 0.070286 -1.34167 -1.50216 0.0747534 
-0.361717 0 -9.78916 0 0 -0 1.74652 86.8432 -5.40597 2.45199 0.0413721 -1.91758 1e-06 0 1e-06 -0.192131 -0.362239 0.117084 -0.022439 -0.1054 -0.012426 -0.305969 -0.440566 0.369025 5.77671 16.9612 4.84239 -0.278447 -0.495958 0.803314 6.19521 16.1153 6.81891 -0.107076 -0.283055 0.598143 8.89408 13.5778 9.00239 -0.651744 0.525814 0.0843274 5.68768 7.20032 6.98544 -0.744901 1.34863 -0.0850647 7.14066 12.6907 12.0691 0.0605262 0.743379 -0.652218 -6.46837 -6.45928 13.2304 -0.489828 0.379053 0.612991 3.23048 -13.451 25.948 0.053739 -0.0620709 0.0886523 14.4625 -2.09482 20.1953 -0.327261 -0.2691 -0.169917 10.6568 14.4508 5.94266 0.315417 1.02492 -0.778221 6.97329 3.71591 -14.0061 -1.72608 -0.0326709 0.209787 -7.16178 -11.9495 -25.8956 -0.100781 0.207637 0.0937204 12.9044 -19.5933 8.42483 -0.175748 -0.307517 -0.0339684 -4.5422 -0.222001 8.40704 -7.20559 0.402186 -2.14205 10.0342 -37.9966 21.9721 11.5769 -20.6275 2.93606 -2.89176 -41.001 -2.47504 4.07998 11.1962 1.80192 4.98398 -7.3463 15.663 -1e-06 1e-06 5e-06 4.5422 0.222008 -8.40702 4.78112 -11.2468 -2.01163 10.1292 -41.6279 -13.8462 -18.2682 0.390841 6.52744 -9.91069 -37.454 -13.9481 13.1878 13.9752 -2.33291 16.055 -8.14678 0.070286 -1.20538 5.0873 -0.0260862 
-0.523741 0 -11.4086 0 0 -0 2.06156 86.8976 -6.80927 2.69394 0.0512892 -2.38356 1e-06 0 1e-06 -0.245658 -0.463494 0.149875 -0.022439 -0.1054 -0.012426 -0.289543 -0.423672 0.354492 5.77671 16.9612 4.84239 -0.247147 -0.460701 0.816198 6.19521 16.1153 6.81891 -0.0852092 -0.258288 0.601459 8.89408 13.5778 9.00239 -0.701602 0.563423 0.151549 5.68768 7.20032 6.98544 -0.824897 1.45598 0.0199101 7.14066 12.6907 12.0691 0.0665804 0.641902 -0.523566 -6.46837 -6.45928 13.2304 -0.683844 0.579922 0.49252 3.23048 -13.451 25.948 0.268107 -0.30785 0.441428 14.4625 -2.09482 20.1953 -0.604143 -0.495871 -0.0963298 10.6568 14.4508 5.94266 0.260811 0.901613 -0.738632 6.97329 3.71591 -14.0061 -1.71628 -0.301109 -0.0858097 -7.16178 -11.9495 -25.8956 -0.233501 0.479767 0.217226 12.9044 -19.5933 8.42483 -0.156338 -0.267451 -0.13616 -4.5422 -0.222001 8.40704 -8.35802 0.877932 -1.91577 10.0342 -37.9966 21.9721 14.2429 -24.6939 4.12787 -2.89176 -41.001 -2.47504 5.12669 8.21858 2.27666 4.98398 -7.3463 15.663 -1e-06 1e-06 5e-06 4.5422 0.222008 -8.40702 4.88795 -13.3456 -1.54925 10.1292 -41.6279 -13.8462 -19.0867 0.359482 6.81997 -9.91069 -37.454 -13.9481 14.3149 15.5906 -2.39566 16.055 -8.14678 0.070286 -1.18292 5.36695 -0.0350072 
-0.795251 0 -13.0624 0 0 -0 2.37466 86.9674 -8.03741 2.74467 -0.0895577 -2.98533 1e-06 -1.42109e-14 1e-06 -0.285059 -0.538094 0.173677 -0.022439 -0.1054 -0.012426 -0.217987 -0.389989 0.402642 5.77671 16.9612 4.84239 -0.132164 -0.396944 0.890099 6.19521 16.1153 6.81891 -0.00156991 -0.210147 0.635822 8.89408 13.5778 9.00239 -0.796973 0.589469 0.253006 5.68768 7.20032 6.98544 -0.999891 1.58042 0.173113 7.14066 12.6907 12.0691 0.00224299 0.429239 -0.458864 -6.46837 -6.45928 13.2304 -0.820126 1.07474 0.393717 3.23048 -13.451 25.948 0.460251 -0.525564 0.756328 14.4625 -2.09482 20.1953 -0.814164 -0.661589 -0.0587315 10.6568 14.4508 5.94266 0.207347 0.775767 -0.690399 6.97329 3.71591 -14.0061 -1.62416 -0.287092 -0.289491 -7.16178 -11.9495 -25.8956 -0.342686 0.702483 0.318885 12.9044 -19.5933 8.42483 -0.129506 -0.293051 -0.104692 -4.5422 -0.222001 8.40704 -10.425 3.46346 -1.3015 10.0342 -37.9966 21.9721 19.6205 -31.9364 6.98372 -2.89176 -41.001 -2.47504 5.8344 8.49051 2.21218 4.98398 -7.3463 15.663 -1e-06 1e-06 5e-06 4.5422 0.222008 -8.40702 5.22637 -15.1301 -0.623348 10.1292 -41.6279 -13.8462 -19.5725 0.33888 6.99342 -9.91069 -37.454 -13.9481 15.079 16.9358 -2.59861 16.055 -8.14678 0.070286 -1.16846 4.93431 -0.0337933 
-1.01863 0 -15.0729 0 0 -0 2.68414 87.0024 -9.01361 2.64561 -0.348867 -3.73958 1e-06 1.42109e-14 1e-06 -0.323214 -0.610365 0.195711 -0.022439 -0.1054 -0.012426 -0.103906 -0.348328 0.513384 5.77671 16.9612 4.84239 0.0523862 -0.313246 1.03818 6.19521 16.1153 6.81891 0.135658 -0.143576 0.712095 8.89408 13.5778 9.00239 -0.917309 0.593737 0.395046 5.68768 7.20032 6.98544 -1.24453 1.69118 0.393485 7.14066 12.6907 12.0691 -0.112742 0.169801 -0.474402 -6.46837 -6.45928 13.2304 -0.859656 1.77357 0.388911 3.23048 -13.451 25.948 0.591732 -0.673143 0.971078 14.4625 -2.09482 20.1953 -0.938314 -0.757055 -0.0671371 10.6568 14.4508 5.94266 0.158031 0.667347 -0.659398 6.97329 3.71591 -14.0061 -1.47297 0.101177 -0.337566 -7.16178 -11.9495 -25.8956 -0.400709 0.820464 0.37294 12.9044 -19.5933 8.42483 -0.103286 -0.392665 0.0722053 -4.5422 -0.222001 8.40704 -10.7558 2.78502 -0.32271 10.0342 -37.9966 21.9721 19.6183 -31.9337 6.98246 -2.89176 -41.001 -2.47504 8.46103 7.33295 2.24657 4.98398 -7.3463 15.663 -1e-06 1e-06 5e-06 4.5422 0.222008 -8.40702 5.80608 -16.5826 0.557487 10.1292 -41.6279 -13.8462 -19.8967 0.324318 7.10907 -9.91069 -37.454 -13.9481 15.5563 18.1163 -2.79785 16.055 -8.14678 0.070286 -1.14707 4.84293 -0.0307343 
